<svg xmlns="http://www.w3.org/2000/svg" width="38.417" height="6.109" viewBox="0 0 38.417 6.109"><defs><style>.a,.b{fill:#08b0dc;}.b{font-size:6px;font-family:Helvetica;letter-spacing:0.06em;}</style></defs><g transform="translate(-106 -713.891)"><path class="a" d="M.762,2.03a.736.736,0,0,0-.542.22A.736.736,0,0,0,0,2.792a.734.734,0,0,0,.22.545.742.742,0,0,0,.542.217A.742.742,0,0,0,1.3,3.337a.734.734,0,0,0,.22-.545A.736.736,0,0,0,1.3,2.25.736.736,0,0,0,.762,2.03Zm0,1.018a.256.256,0,0,1-.185-.068.247.247,0,0,1-.071-.188A.24.24,0,0,1,.577,2.61a.256.256,0,0,1,.185-.068.256.256,0,0,1,.185.068.24.24,0,0,1,.071.182.247.247,0,0,1-.071.188A.256.256,0,0,1,.762,3.048Zm0-1.524A.736.736,0,0,0,1.3,1.3a.736.736,0,0,0,.22-.542A.736.736,0,0,0,1.3.22.736.736,0,0,0,.762,0,.736.736,0,0,0,.22.22.736.736,0,0,0,0,.762.736.736,0,0,0,.22,1.3.736.736,0,0,0,.762,1.524Zm0-1.018a.245.245,0,0,1,.256.256.245.245,0,0,1-.256.256A.245.245,0,0,1,.506.762.245.245,0,0,1,.762.506Zm0,3.56a.742.742,0,0,0-.542.217.78.78,0,0,0,0,1.086.736.736,0,0,0,.542.22.736.736,0,0,0,.542-.22.78.78,0,0,0,0-1.086A.742.742,0,0,0,.762,4.066Zm0,1.012a.256.256,0,0,1-.185-.068.24.24,0,0,1-.071-.182A.247.247,0,0,1,.577,4.64a.256.256,0,0,1,.185-.068.256.256,0,0,1,.185.068.247.247,0,0,1,.071.188.24.24,0,0,1-.071.182A.256.256,0,0,1,.762,5.078Zm3.048.256" transform="translate(140.607 713.891)"/><text class="b" transform="translate(106 719)"><tspan x="0" y="0">read more</tspan></text></g></svg>